<?xml version="1.0" encoding="utf-8"?>
<!-- Generator: Adobe Illustrator 26.0.0, SVG Export Plug-In . SVG Version: 6.00 Build 0)  -->
<svg version="1.1" xmlns="http://www.w3.org/2000/svg" xmlns:xlink="http://www.w3.org/1999/xlink" x="0px" y="0px"
	 viewBox="0 0 1133.86 1080" style="enable-background:new 0 0 1133.86 1080;" xml:space="preserve">
<style type="text/css">
	.st0{opacity:0.1;}
	.st1{fill:#00943C;}
	.st2{fill:#0075BE;}
	.st3{fill:#F2E2D2;}
	.st4{fill:#57E271;}
	.st5{fill:#39B54A;}
	.st6{fill:#05428C;}
	.st7{fill:none;stroke:#C25706;stroke-width:10;stroke-miterlimit:10;}
</style>
<g id="Membrete">
	<g>
		<g id="ISOTIPO_00000051358980480879621780000007750544748539446403_">
			<circle class="st1" cx="564.9" cy="464.97" r="42.2"/>
			<circle class="st2" cx="667.06" cy="624.99" r="29.54"/>
			<circle class="st2" cx="417.31" cy="613.67" r="29.54"/>
			<path class="st2" d="M644.17,695.91c1.39-2.2,3.5-5.27,6.4-8.64c14.11-16.38,31.84-22.19,45.2-26.38
				c19.2-6.02,36.7-6.86,50.01-6.12c-20.31,9.13-68.84,34.38-93.31,85.98c-13.26,27.96-16.92,58.34-17.19,60.72
				c-4.19,36.79,3.83,62.21-0.7,63.54c-4.8,1.4-21.01-24.98-29.09-57.78c-13.4-54.4,7.19-79.33,0-131.87
				c-2.64-19.29-9.78-47.84-31.49-81.26c8.03,2.58,34.39,12.14,53.02,39.76C644.98,660.46,644.63,687.31,644.17,695.91z"/>
			<path class="st2" d="M440.78,686.14c-1.39-2.2-3.5-5.27-6.4-8.64c-14.11-16.38-31.84-22.19-45.2-26.38
				c-19.2-6.02-36.7-6.86-50.01-6.12c20.31,9.13,68.84,34.38,93.31,85.98c13.26,27.96,16.92,58.34,17.19,60.72
				c4.19,36.79-3.83,62.21,0.7,63.54c4.8,1.4,21.01-24.98,29.09-57.78c13.4-54.4-7.19-79.33,0-131.87
				c2.64-19.29,9.78-47.84,31.49-81.26c-8.03,2.58-34.39,12.14-53.02,39.76C439.98,650.69,440.32,677.55,440.78,686.14z"/>
			<path class="st1" d="M546.39,876.43c2.02-0.39-17.59-58.45-13.2-140.71c2.29-42.83,7.55-121.51,62.75-188.28
				c17.8-21.53,36-36.03,48.36-44.78c11.25,6.55,30.98,16.02,56.87,18.1c40.61,3.26,70.89-13.75,85.33-22.01
				c70.95-40.54,90.23-120.29,95.42-141.77c4.46-18.46,5.98-34.06,6.58-44.26c-5.62,7.01-15.24,16.68-29.51,20.85
				c-10.68,3.12-18.95,1.7-43.15-2.8c-48.81-9.07-48.43-9.44-54.16-9.79c-12.15-0.76-35.01-0.42-59.39,9.9
				c-34.76,14.72-52.79,41.35-59.41,51.4c-20.91,31.78-23.63,63.3-23.98,77.34c15.14-11.75,39.44-27.52,72.5-36.84
				c29.47-8.3,59.69-9.72,59.99-8c0.19,1.13-12.45,3.54-25.77,7.45c-38.8,11.38-65.26,30.09-81.53,41.59
				c-13.3,9.4-48.08,34.45-76.36,76.38c-45.95,68.11-46.68,139.17-47.19,188.61C519.7,812.51,544.26,876.84,546.39,876.43z"/>
			<path class="st1" d="M527.88,527.36c-13.19-13.11-26.38-26.22-39.58-39.33c-2.9,3.72-7.23,8.64-13.23,13.56
				c0,0-16.74,13.73-38.69,18.18c-28.27,5.73-53.06-6.53-66.86-13.58c-71.6-36.6-96.92-117.02-102.08-134.98
				c-5.39-18.79-11.83-49.74-8.71-89.49c2.97,6.53,8.39,15.8,18.27,22.24c19.79,12.91,39.95,3.03,80.17,3.47
				c14.38,0.16,34.01,0.38,55.67,7.25c10.44,3.31,46.67,15.38,72.43,51.66c29.81,41.98,25.04,87.41,23.55,98.56
				c-11.31-11.99-31.92-30.66-62.89-43.58c-22.52-9.39-42.85-12.54-57.18-13.58c23.18,7.08,68.25,24.55,105.57,67.51
				C510.33,493.69,520.88,512.15,527.88,527.36z"/>
		</g>
		<g>
			<path class="st6" d="M239.05,1041.71l11.7-74.16h42.86l-2.69,17.02h-23.05l-1.98,12.21h21.58l-2.58,16.01h-21.48l-4.56,28.93
				H239.05z"/>
			<path class="st6" d="M305.97,967.54h19.91l-5.93,37.23c-0.47,2.84-0.79,5.06-0.96,6.66c-0.17,1.6-0.25,3.01-0.25,4.23
				c0,3.17,0.89,5.65,2.68,7.42c1.79,1.77,4.29,2.66,7.5,2.66c7.63,0,13.05-10.16,16.26-30.5l0.1-0.71l4.25-27h19.91l-6.64,42.1
				v0.05c-1.45,9.12-3.28,15.57-5.47,19.35c-2.77,4.83-6.68,8.51-11.73,11.04c-5.05,2.53-11,3.8-17.86,3.8
				c-8.85,0-15.94-2.12-21.28-6.36c-5.34-4.24-8-9.87-8-16.89c0-2.09,0.2-4.9,0.61-8.41c0.41-3.51,1.01-7.87,1.82-13.07
				L305.97,967.54z"/>
			<path class="st6" d="M372.69,1041.71l11.7-74.16h22.64l15.65,36.63c0.13,0.3,0.35,0.83,0.66,1.57c1.72,4.02,2.92,7.53,3.6,10.54
				v-1.87c0-1.35,0.08-2.84,0.23-4.48c0.15-1.64,0.38-3.62,0.68-5.95l5.72-36.42h19.81l-11.7,74.16H419.9l-16.62-37.74
				c-1.22-2.74-2.14-5-2.76-6.79s-1.16-3.58-1.6-5.37v2.08c0,1.35-0.06,2.78-0.18,4.28c-0.12,1.5-0.33,3.5-0.63,6l-5.62,37.54
				H372.69z"/>
			<path class="st6" d="M457.33,1041.71l11.6-74.16h12.77c9.52,0,16.32,0.26,20.39,0.79s7.37,1.43,9.9,2.71
				c5.5,2.77,9.7,6.83,12.59,12.18s4.33,11.71,4.33,19.07c0,7.13-1.29,13.36-3.88,18.69c-2.58,5.34-6.51,9.86-11.78,13.58
				c-3.71,2.57-8.12,4.4-13.22,5.5c-5.1,1.1-13.63,1.65-25.58,1.65h-2.79H457.33z M479.83,1025.19c1.38,0.1,2.41,0.16,3.06,0.18
				c0.66,0.02,1.27,0.03,1.85,0.03c7.94,0,13.96-1.99,18.08-5.98s6.18-9.83,6.18-17.53c0-6.28-1.5-10.85-4.51-13.7
				c-3.01-2.85-7.87-4.28-14.59-4.28h-3.75L479.83,1025.19z"/>
			<path class="st6" d="M558.14,1025.19h22.95l-2.58,16.51h-42.75l11.7-74.16h42.76l-2.69,17.12h-22.95l-1.87,12.11h21.28
				l-2.48,16.11h-21.38L558.14,1025.19z"/>
			<path class="st6" d="M598.92,1016.18c3.11,3.34,6.07,5.77,8.89,7.29c2.82,1.52,5.73,2.28,8.74,2.28c2.5,0,4.49-0.61,5.98-1.82
				c1.49-1.22,2.23-2.82,2.23-4.81c0-2.7-3.01-5.62-9.02-8.76c-0.57-0.3-1.03-0.54-1.37-0.71c-5.84-3.04-9.85-5.96-12.01-8.76
				c-2.16-2.8-3.24-6.21-3.24-10.23c0-7.33,2.47-13.32,7.42-17.98s11.32-6.99,19.12-6.99c4.12,0,8.08,0.73,11.88,2.18
				c3.8,1.45,7.39,3.6,10.76,6.43l-8.51,14.64c-2.67-2.3-5.1-4-7.29-5.12c-2.2-1.11-4.22-1.67-6.08-1.67
				c-2.03,0-3.72,0.58-5.07,1.75s-2.03,2.59-2.03,4.28c0,2.09,2.53,4.44,7.6,7.04c1.79,0.91,3.17,1.66,4.15,2.23
				c5.2,2.87,8.81,5.8,10.84,8.79c2.03,2.99,3.04,6.73,3.04,11.22c0,7.94-2.75,14.28-8.26,19.02c-5.5,4.75-12.99,7.12-22.44,7.12
				c-4.96,0-9.61-1.06-13.93-3.17c-4.32-2.11-8.22-5.24-11.7-9.4L598.92,1016.18z"/>
			<path class="st6" d="M691.58,1043.68c-5.3,0-10.12-0.73-14.46-2.18c-4.34-1.45-8.2-3.63-11.58-6.54
				c-3.55-3.11-6.32-6.94-8.31-11.5c-1.99-4.56-2.99-9.4-2.99-14.54c0-5.54,0.85-10.71,2.56-15.53c1.7-4.81,4.25-9.18,7.62-13.09
				c3.95-4.66,8.77-8.23,14.46-10.71s11.86-3.72,18.52-3.72c11.15,0,20.15,3.21,27.03,9.62c6.87,6.42,10.31,14.76,10.31,25.03
				c0,5.5-0.87,10.68-2.61,15.53c-1.74,4.85-4.28,9.21-7.62,13.09c-4.09,4.76-8.92,8.38-14.49,10.84S698.3,1043.68,691.58,1043.68z
				 M696.14,984.01c-6.04,0-11.11,2.18-15.2,6.54c-4.09,4.36-6.13,9.76-6.13,16.21c0,5.71,1.63,10.27,4.89,13.68
				s7.61,5.12,13.04,5.12c5.94,0,10.99-2.25,15.15-6.76c4.15-4.51,6.23-10,6.23-16.49c0-5.34-1.69-9.72-5.07-13.15
				S701.37,984.01,696.14,984.01z"/>
			<path class="st6" d="M733.17,1041.71l37.13-74.16h24.82l15.75,74.16h-20.11l-2.99-13.98h-25.94l-7.09,13.98H733.17z
				 M769.29,1011.21h15.65l-3.39-17.33c-0.34-1.72-0.59-3.26-0.76-4.61s-0.27-2.62-0.3-3.8c-0.71,2.03-1.36,3.81-1.95,5.34
				c-0.59,1.54-1.06,2.68-1.39,3.42L769.29,1011.21z"/>
			<path class="st6" d="M810.57,1041.71l22.69-74.16h22.04l4.96,28.72c0.3,1.76,0.58,3.61,0.84,5.55c0.25,1.94,0.5,3.96,0.73,6.05
				c0.37-1.49,0.87-3.08,1.49-4.79c0.62-1.71,1.51-3.84,2.66-6.41l13.27-29.13h21.88l1.77,74.16h-18.29l-0.2-35.36
				c0-1.99,0.03-3.96,0.1-5.9c0.07-1.94,0.17-3.89,0.3-5.85c-0.74,2.5-2.01,5.62-3.8,9.37c-0.34,0.74-0.59,1.3-0.76,1.67
				l-16.92,36.07h-12.01l-6.94-36.02c-0.37-1.82-0.7-3.66-0.99-5.5c-0.29-1.84-0.55-3.69-0.79-5.55c-0.37,2.2-0.77,4.27-1.19,6.23
				c-0.42,1.96-0.85,3.78-1.29,5.47l-10.28,35.36H810.57z"/>
		</g>
		<path class="st7" d="M164.66,897.79c-30.97-32.38-81.9-94.18-112.11-185.99c0,0-24.21-77.4-24.21-160.14
			c0-297.45,241.13-538.58,538.58-538.58s538.58,241.13,538.58,538.58c0,82.36-24.22,160.17-24.22,160.17
			c-29.53,90.97-78.83,152.9-109.43,185.97"/>
	</g>
</g>
<g id="Logotipo">
</g>
<g id="Isotipo">
</g>
<g id="Imagotipo">
	<g id="LOGOTIPO">
	</g>
</g>
</svg>
