<?xml version="1.0" encoding="utf-8"?>
<!-- Generator: Adobe Illustrator 26.0.0, SVG Export Plug-In . SVG Version: 6.00 Build 0)  -->
<svg version="1.1" xmlns="http://www.w3.org/2000/svg" xmlns:xlink="http://www.w3.org/1999/xlink" x="0px" y="0px"
	 viewBox="0 0 1000 1000" style="enable-background:new 0 0 1000 1000;" xml:space="preserve">
<style type="text/css">
	.st0{opacity:0.1;}
	.st1{fill:#00943C;}
	.st2{fill:#0075BE;}
	.st3{fill:#F2E2D2;}
	.st4{fill:#57E271;}
	.st5{fill:#39B54A;}
	.st6{fill:#05428C;}
	.st7{fill:none;stroke:#C25706;stroke-width:10;stroke-miterlimit:10;}
</style>
<g id="Membrete">
</g>
<g id="Logotipo">
</g>
<g id="Isotipo">
	<g id="ISOTIPO_00000131333393557560156310000006898583129971243662_">
		<circle class="st1" cx="487.48" cy="328.1" r="63.58"/>
		<circle class="st2" cx="641.37" cy="569.17" r="44.5"/>
		<circle class="st2" cx="265.12" cy="552.11" r="44.5"/>
		<path class="st2" d="M606.9,676c2.1-3.32,5.27-7.94,9.64-13.01c21.25-24.68,47.96-33.42,68.09-39.74
			c28.92-9.07,55.28-10.34,75.34-9.22c-30.59,13.75-103.71,51.79-140.57,129.53c-19.97,42.13-25.49,87.89-25.9,91.47
			c-6.31,55.42,5.77,93.72-1.06,95.72c-7.23,2.11-31.65-37.63-43.82-87.04c-20.18-81.96,10.83-119.52,0-198.66
			c-3.98-29.06-14.74-72.07-47.43-122.42c12.1,3.88,51.8,18.28,79.88,59.9C608.11,622.59,607.59,663.05,606.9,676z"/>
		<path class="st2" d="M300.49,661.29c-2.1-3.32-5.27-7.94-9.64-13.01c-21.25-24.68-47.96-33.42-68.09-39.74
			c-28.92-9.07-55.28-10.34-75.34-9.22c30.59,13.75,103.71,51.79,140.57,129.53c19.97,42.13,25.49,87.89,25.9,91.47
			c6.31,55.42-5.77,93.72,1.06,95.72c7.23,2.11,31.65-37.63,43.82-87.04c20.18-81.96-10.83-119.52,0-198.66
			c3.98-29.06,14.74-72.07,47.43-122.42c-12.1,3.88-51.8,18.28-79.88,59.9C299.29,607.88,299.8,648.34,300.49,661.29z"/>
		<path class="st1" d="M459.59,947.96c3.04-0.58-26.51-88.06-19.88-211.97c3.45-64.52,11.38-183.05,94.54-283.64
			c26.81-32.43,54.23-54.27,72.86-67.46c16.94,9.87,46.67,24.14,85.68,27.27c61.18,4.91,106.8-20.72,128.56-33.15
			c106.89-61.07,135.93-181.22,143.74-213.58c6.72-27.8,9.01-51.31,9.91-66.68c-8.46,10.56-22.97,25.12-44.46,31.41
			c-16.1,4.71-28.54,2.56-65-4.22c-73.54-13.66-72.96-14.22-81.6-14.75c-18.3-1.14-52.75-0.63-89.47,14.92
			c-52.37,22.17-79.53,62.29-89.5,77.43c-31.5,47.88-35.6,95.37-36.12,116.51c22.81-17.69,59.41-41.46,109.22-55.49
			c44.4-12.51,89.92-14.65,90.37-12.06c0.29,1.69-18.75,5.33-38.82,11.22c-58.45,17.14-98.31,45.33-122.82,62.66
			c-20.03,14.17-72.43,51.89-115.04,115.06c-69.22,102.61-70.33,209.66-71.09,284.14C419.38,851.66,456.38,948.57,459.59,947.96z"/>
		<path class="st1" d="M431.7,422.09c-19.87-19.75-39.75-39.5-59.62-59.25c-4.37,5.6-10.9,13.02-19.94,20.43
			c0,0-25.22,20.68-58.29,27.39c-42.59,8.64-79.94-9.83-100.72-20.45C85.27,335.08,47.12,213.92,39.35,186.86
			c-8.13-28.31-17.82-74.93-13.12-134.82c4.48,9.84,12.64,23.81,27.53,33.51c29.82,19.44,60.19,4.56,120.78,5.23
			c21.67,0.24,51.23,0.57,83.87,10.92c15.73,4.99,70.31,23.17,109.12,77.82C412.43,242.77,405.24,311.2,403,328
			c-17.04-18.07-48.08-46.19-94.75-65.65c-33.93-14.15-64.56-18.89-86.15-20.45c34.93,10.66,102.81,36.99,159.04,101.7
			C405.26,371.35,421.16,399.17,431.7,422.09z"/>
	</g>
</g>
<g id="Imagotipo">
	<g id="LOGOTIPO">
	</g>
</g>
</svg>
