<?xml version="1.0" encoding="utf-8"?>
<!-- Generator: Adobe Illustrator 26.0.0, SVG Export Plug-In . SVG Version: 6.00 Build 0)  -->
<svg version="1.1" xmlns="http://www.w3.org/2000/svg" xmlns:xlink="http://www.w3.org/1999/xlink" x="0px" y="0px"
	 viewBox="0 0 1000 226.77" style="enable-background:new 0 0 1000 226.77;" xml:space="preserve">
<style type="text/css">
	.st0{opacity:0.1;}
	.st1{fill:#00943C;}
	.st2{fill:#0075BE;}
	.st3{fill:#F2E2D2;}
	.st4{fill:#57E271;}
	.st5{fill:#39B54A;}
	.st6{fill:#05428C;}
	.st7{fill:none;stroke:#C25706;stroke-width:10;stroke-miterlimit:10;}
</style>
<g id="Membrete">
</g>
<g id="Logotipo">
	<g>
		<path class="st6" d="M29.98,158.21L46.44,53.89h60.28l-3.78,23.94H70.52l-2.78,17.17H98.1l-3.63,22.52H64.25l-6.41,40.69H29.98z"
			/>
		<path class="st6" d="M124.11,53.89h28l-8.34,52.37c-0.67,3.99-1.12,7.11-1.35,9.37c-0.24,2.26-0.36,4.24-0.36,5.95
			c0,4.47,1.26,7.94,3.78,10.44c2.52,2.49,6.03,3.74,10.55,3.74c10.73,0,18.36-14.3,22.87-42.89l0.14-1l5.99-37.98h28l-9.33,59.21
			v0.07c-2.04,12.83-4.61,21.9-7.7,27.22c-3.9,6.79-9.39,11.97-16.5,15.53c-7.1,3.56-15.47,5.34-25.12,5.34
			c-12.45,0-22.42-2.98-29.93-8.94c-7.51-5.96-11.26-13.88-11.26-23.76c0-2.94,0.29-6.89,0.86-11.83
			c0.57-4.94,1.42-11.07,2.56-18.38L124.11,53.89z"/>
		<path class="st6" d="M217.95,158.21l16.46-104.31h31.85l22.02,51.52c0.19,0.43,0.5,1.17,0.93,2.21
			c2.42,5.65,4.11,10.59,5.06,14.82v-2.64c0-1.9,0.11-4,0.32-6.31s0.53-5.09,0.96-8.37l8.05-51.23h27.86l-16.46,104.31h-30.64
			l-23.37-53.08c-1.71-3.85-3-7.03-3.88-9.55c-0.88-2.52-1.63-5.03-2.25-7.55v2.92c0,1.9-0.08,3.91-0.25,6.02
			c-0.17,2.11-0.46,4.93-0.89,8.44l-7.91,52.8H217.95z"/>
		<path class="st6" d="M337.01,158.21l16.32-104.31h17.96c13.4,0,22.95,0.37,28.68,1.1c5.72,0.74,10.37,2.01,13.93,3.81
			c7.74,3.9,13.65,9.61,17.71,17.14c4.06,7.53,6.09,16.47,6.09,26.83c0,10.02-1.82,18.79-5.45,26.29
			c-3.63,7.51-9.16,13.87-16.57,19.1c-5.23,3.61-11.43,6.19-18.6,7.73c-7.17,1.54-19.17,2.32-35.98,2.32h-3.92H337.01z
			 M368.65,134.98c1.95,0.14,3.38,0.23,4.31,0.25c0.93,0.02,1.79,0.04,2.6,0.04c11.16,0,19.64-2.8,25.44-8.41
			c5.79-5.6,8.69-13.82,8.69-24.65c0-8.83-2.11-15.26-6.34-19.27c-4.23-4.01-11.07-6.02-20.52-6.02h-5.27L368.65,134.98z"/>
		<path class="st6" d="M478.8,134.98h32.28l-3.63,23.23h-60.14l16.46-104.31h60.14l-3.78,24.08h-32.28l-2.64,17.03h29.93
			l-3.49,22.66h-30.07L478.8,134.98z"/>
		<path class="st6" d="M536.16,122.3c4.37,4.7,8.54,8.12,12.5,10.26c3.96,2.14,8.06,3.21,12.29,3.21c3.51,0,6.32-0.85,8.41-2.56
			c2.09-1.71,3.14-3.97,3.14-6.77c0-3.8-4.23-7.91-12.68-12.33c-0.81-0.43-1.45-0.76-1.92-1c-8.22-4.28-13.85-8.38-16.89-12.33
			c-3.04-3.94-4.56-8.74-4.56-14.39c0-10.31,3.48-18.74,10.44-25.29c6.96-6.56,15.92-9.83,26.9-9.83c5.79,0,11.37,1.02,16.71,3.06
			c5.34,2.04,10.39,5.06,15.14,9.05l-11.97,20.59c-3.75-3.23-7.17-5.63-10.26-7.2c-3.09-1.57-5.94-2.35-8.55-2.35
			c-2.85,0-5.23,0.82-7.12,2.46c-1.9,1.64-2.85,3.65-2.85,6.02c0,2.95,3.56,6.25,10.69,9.9c2.52,1.28,4.46,2.33,5.84,3.14
			c7.31,4.04,12.4,8.16,15.25,12.36c2.85,4.2,4.28,9.47,4.28,15.78c0,11.16-3.87,20.08-11.61,26.75
			c-7.74,6.67-18.27,10.01-31.57,10.01c-6.98,0-13.51-1.49-19.59-4.45c-6.08-2.97-11.57-7.37-16.46-13.22L536.16,122.3z"/>
		<path class="st6" d="M666.48,160.99c-7.46,0-14.24-1.02-20.34-3.06s-11.53-5.11-16.28-9.19c-4.99-4.37-8.88-9.76-11.68-16.17
			c-2.8-6.41-4.2-13.23-4.2-20.45c0-7.79,1.2-15.07,3.6-21.84s5.97-12.91,10.72-18.42c5.56-6.56,12.34-11.58,20.34-15.07
			c8-3.49,16.68-5.24,26.04-5.24c15.68,0,28.35,4.51,38.01,13.54c9.67,9.03,14.5,20.76,14.5,35.2c0,7.74-1.22,15.02-3.67,21.84
			c-2.45,6.82-6.02,12.96-10.72,18.42c-5.75,6.7-12.54,11.78-20.38,15.25S675.93,160.99,666.48,160.99z M672.89,77.05
			c-8.5,0-15.63,3.06-21.38,9.19c-5.75,6.13-8.62,13.73-8.62,22.8c0,8.03,2.29,14.44,6.88,19.24c4.58,4.8,10.7,7.2,18.35,7.2
			c8.36,0,15.46-3.17,21.3-9.51c5.84-6.34,8.76-14.07,8.76-23.19c0-7.5-2.38-13.67-7.12-18.49
			C686.31,79.46,680.26,77.05,672.89,77.05z"/>
		<path class="st6" d="M724.98,158.21l52.23-104.31h34.91l22.16,104.31h-28.29l-4.2-19.67h-36.48l-9.97,19.67H724.98z
			 M775.78,115.31h22.02l-4.77-24.37c-0.48-2.42-0.83-4.58-1.07-6.48c-0.24-1.9-0.38-3.68-0.43-5.34c-1,2.85-1.91,5.36-2.74,7.52
			c-0.83,2.16-1.49,3.77-1.96,4.81L775.78,115.31z"/>
		<path class="st6" d="M833.86,158.21l31.92-104.31h31l6.98,40.4c0.43,2.47,0.82,5.07,1.18,7.8c0.36,2.73,0.7,5.57,1.03,8.52
			c0.52-2.09,1.22-4.33,2.1-6.73c0.88-2.4,2.12-5.4,3.74-9.01l18.67-40.97h30.78l2.49,104.31h-25.72l-0.28-49.73
			c0-2.8,0.05-5.57,0.14-8.3c0.09-2.73,0.24-5.47,0.43-8.23c-1.04,3.52-2.83,7.91-5.34,13.18c-0.48,1.05-0.83,1.83-1.07,2.35
			l-23.8,50.73h-16.89l-9.76-50.66c-0.52-2.57-0.99-5.14-1.39-7.73c-0.4-2.59-0.77-5.19-1.1-7.8c-0.52,3.09-1.08,6.01-1.67,8.76
			c-0.59,2.75-1.2,5.32-1.82,7.7L861,158.21H833.86z"/>
	</g>
</g>
<g id="Isotipo">
</g>
<g id="Imagotipo">
	<g id="LOGOTIPO">
	</g>
</g>
</svg>
