<?xml version="1.0" encoding="utf-8"?>
<!-- Generator: Adobe Illustrator 26.0.0, SVG Export Plug-In . SVG Version: 6.00 Build 0)  -->
<svg version="1.1" id="Capa_1" xmlns="http://www.w3.org/2000/svg" xmlns:xlink="http://www.w3.org/1999/xlink" x="0px" y="0px"
	 viewBox="0 0 1000 226.8" style="enable-background:new 0 0 1000 226.8;" xml:space="preserve">
<style type="text/css">
	.st0{fill:#FFFFFF;}
</style>
<g id="Membrete">
</g>
<g id="Logotipo">
	<g>
		<path class="st0" d="M30,158.2L46.4,53.9h60.3l-3.8,23.9H70.5L67.7,95h30.4l-3.6,22.5H64.2l-6.4,40.7H30z"/>
		<path class="st0" d="M124.1,53.9h28l-8.3,52.4c-0.7,4-1.1,7.1-1.4,9.4c-0.2,2.3-0.4,4.2-0.4,5.9c0,4.5,1.3,7.9,3.8,10.4
			c2.5,2.5,6,3.7,10.6,3.7c10.7,0,18.4-14.3,22.9-42.9l0.1-1l6-38h28l-9.3,59.2v0.1c-2,12.8-4.6,21.9-7.7,27.2
			c-3.9,6.8-9.4,12-16.5,15.5c-7.1,3.6-15.5,5.3-25.1,5.3c-12.4,0-22.4-3-29.9-8.9s-11.3-13.9-11.3-23.8c0-2.9,0.3-6.9,0.9-11.8
			s1.4-11.1,2.6-18.4L124.1,53.9z"/>
		<path class="st0" d="M217.9,158.2l16.5-104.3h31.9l22,51.5c0.2,0.4,0.5,1.2,0.9,2.2c2.4,5.7,4.1,10.6,5.1,14.8v-2.6
			c0-1.9,0.1-4,0.3-6.3s0.5-5.1,1-8.4l8-51.2h27.9L315,158.2h-30.6L261,105.1c-1.7-3.8-3-7-3.9-9.6c-0.9-2.5-1.6-5-2.2-7.6v2.9
			c0,1.9-0.1,3.9-0.2,6c-0.2,2.1-0.5,4.9-0.9,8.4l-7.9,52.8L217.9,158.2L217.9,158.2z"/>
		<path class="st0" d="M337,158.2l16.3-104.3h18c13.4,0,23,0.4,28.7,1.1c5.7,0.7,10.4,2,13.9,3.8c7.7,3.9,13.6,9.6,17.7,17.1
			c4.1,7.5,6.1,16.5,6.1,26.8c0,10-1.8,18.8-5.5,26.3c-3.6,7.5-9.2,13.9-16.6,19.1c-5.2,3.6-11.4,6.2-18.6,7.7s-19.2,2.3-36,2.3
			h-3.9L337,158.2L337,158.2z M368.6,135c2,0.1,3.4,0.2,4.3,0.2s1.8,0,2.6,0c11.2,0,19.6-2.8,25.4-8.4c5.8-5.6,8.7-13.8,8.7-24.7
			c0-8.8-2.1-15.3-6.3-19.3c-4.2-4-11.1-6-20.5-6h-5.3L368.6,135z"/>
		<path class="st0" d="M478.8,135h32.3l-3.6,23.2h-60.1l16.5-104.3h60.1L520.1,78h-32.3l-2.6,17h29.9l-3.5,22.7h-30.1L478.8,135z"/>
		<path class="st0" d="M536.2,122.3c4.4,4.7,8.5,8.1,12.5,10.3s8.1,3.2,12.3,3.2c3.5,0,6.3-0.9,8.4-2.6c2.1-1.7,3.1-4,3.1-6.8
			c0-3.8-4.2-7.9-12.7-12.3c-0.8-0.4-1.5-0.8-1.9-1c-8.2-4.3-13.8-8.4-16.9-12.3c-3-3.9-4.6-8.7-4.6-14.4c0-10.3,3.5-18.7,10.4-25.3
			c7-6.6,15.9-9.8,26.9-9.8c5.8,0,11.4,1,16.7,3.1s10.4,5.1,15.1,9l-12,20.6c-3.8-3.2-7.2-5.6-10.3-7.2s-5.9-2.3-8.5-2.3
			c-2.8,0-5.2,0.8-7.1,2.5c-1.9,1.6-2.8,3.7-2.8,6c0,2.9,3.6,6.2,10.7,9.9c2.5,1.3,4.5,2.3,5.8,3.1c7.3,4,12.4,8.2,15.2,12.4
			s4.3,9.5,4.3,15.8c0,11.2-3.9,20.1-11.6,26.8s-18.3,10-31.6,10c-7,0-13.5-1.5-19.6-4.4c-6.1-3-11.6-7.4-16.5-13.2L536.2,122.3z"/>
		<path class="st0" d="M666.5,161c-7.5,0-14.2-1-20.3-3.1s-11.5-5.1-16.3-9.2c-5-4.4-8.9-9.8-11.7-16.2s-4.2-13.2-4.2-20.4
			c0-7.8,1.2-15.1,3.6-21.8s6-12.9,10.7-18.4c5.6-6.6,12.3-11.6,20.3-15.1c8-3.5,16.7-5.2,26-5.2c15.7,0,28.3,4.5,38,13.5
			c9.7,9,14.5,20.8,14.5,35.2c0,7.7-1.2,15-3.7,21.8c-2.5,6.8-6,13-10.7,18.4c-5.8,6.7-12.5,11.8-20.4,15.2S675.9,161,666.5,161z
			 M672.9,77.1c-8.5,0-15.6,3.1-21.4,9.2c-5.8,6.1-8.6,13.7-8.6,22.8c0,8,2.3,14.4,6.9,19.2c4.6,4.8,10.7,7.2,18.3,7.2
			c8.4,0,15.5-3.2,21.3-9.5c5.8-6.3,8.8-14.1,8.8-23.2c0-7.5-2.4-13.7-7.1-18.5C686.3,79.5,680.3,77.1,672.9,77.1z"/>
		<path class="st0" d="M725,158.2l52.2-104.3h34.9l22.2,104.3H806l-4.2-19.7h-36.5l-10,19.7H725z M775.8,115.3h22L793,90.9
			c-0.5-2.4-0.8-4.6-1.1-6.5s-0.4-3.7-0.4-5.3c-1,2.8-1.9,5.4-2.7,7.5c-0.8,2.2-1.5,3.8-2,4.8L775.8,115.3z"/>
		<path class="st0" d="M833.9,158.2l31.9-104.3h31l7,40.4c0.4,2.5,0.8,5.1,1.2,7.8s0.7,5.6,1,8.5c0.5-2.1,1.2-4.3,2.1-6.7
			s2.1-5.4,3.7-9l18.7-41h30.8l2.5,104.3H938l-0.3-49.7c0-2.8,0-5.6,0.1-8.3s0.2-5.5,0.4-8.2c-1,3.5-2.8,7.9-5.3,13.2
			c-0.5,1.1-0.8,1.8-1.1,2.3l-23.8,50.7h-16.9l-9.8-50.7c-0.5-2.6-1-5.1-1.4-7.7c-0.4-2.6-0.8-5.2-1.1-7.8c-0.5,3.1-1.1,6-1.7,8.8
			c-0.6,2.8-1.2,5.3-1.8,7.7L861,158.2H833.9z"/>
	</g>
</g>
<g id="Isotipo">
</g>
<g id="Imagotipo">
	<g id="LOGOTIPO">
	</g>
</g>
</svg>
